<svg enable-background="new 0 0 1000 1000" height="1000" viewBox="0 0 1000 1000" width="1000" xmlns="http://www.w3.org/2000/svg" xmlns:xlink="http://www.w3.org/1999/xlink"><linearGradient id="a" gradientTransform="matrix(1 0 0 -1 0 1000)" gradientUnits="userSpaceOnUse" x1="12.1" x2="987.9" y1="500" y2="500"><style>.c{-webkit-transform-origin:center center;animation:x 15s infinite}@keyframes x{0%{transform:rotate(0deg)}20%,8%{transform:rotate(360deg)}}</style><stop offset="0" stop-color="lch(66 61.42 248.41);"/><stop offset="1" stop-color="lch(48 121.46 314.76)"/></linearGradient><linearGradient id="b" gradientUnits="userSpaceOnUse" x1="209.843" x2="790.157" y1="500" y2="500"><stop offset="0" stop-color="#afaeae"/><stop offset="1" stop-color="#757575"/></linearGradient><circle class="c" cx="500" cy="500" fill="none" opacity=".5" r="484.9" stroke="url(#a)" stroke-miterlimit="10" stroke-width="6"/><path d="m500 217c-160.3 0-290.2 129.9-290.2 290.2 0 128.2 83.1 237 198.4 275.3 14.5 2.7 19.8-6.2 19.8-14 0-6.9-.2-25.1-.4-49.3-80.6 17.5-97.6-38.9-97.6-38.9-13.2-33.5-32.3-42.4-32.3-42.4-26.3-18 2-17.6 2-17.6 29.1 2 44.4 29.9 44.4 29.9 25.9 44.4 67.9 31.6 84.5 24.1 2.6-18.8 10.1-31.6 18.4-38.8-64.4-7.3-132.2-32.2-132.2-143.4 0-31.7 11.2-57.5 29.9-77.9-3.3-7.3-13.1-36.8 2.5-76.8 0 0 24.3-7.8 79.8 29.7 23.2-6.5 47.9-9.6 72.5-9.8 24.7.1 49.3 3.3 72.5 9.8 55.1-37.5 79.4-29.7 79.4-29.7 15.6 40 5.8 69.5 2.9 76.8 18.5 20.3 29.7 46.2 29.7 77.9 0 111.5-67.8 136-132.4 143.1 10.2 8.7 19.6 26.5 19.6 53.7 0 38.8-.4 70-.4 79.5 0 7.6 5.1 16.7 19.9 13.8 116.4-38.2 199.5-147 199.5-275 0-160.3-130-290.2-290.2-290.2" fill="url(#b)"/></svg>
